<?xml version="1.0" encoding="utf-8"?>
<!-- Generator: Adobe Illustrator 22.0.0, SVG Export Plug-In . SVG Version: 6.00 Build 0)  -->
<svg version="1.1" id="Layer_1" xmlns="http://www.w3.org/2000/svg" xmlns:xlink="http://www.w3.org/1999/xlink" x="0px" y="0px"
	 viewBox="0 0 2353.4 1227.4" style="enable-background:new 0 0 2353.4 1227.4;" xml:space="preserve">
<style type="text/css">
	.st0{fill:#FFFFFF;stroke:#000000;stroke-width:0.1;stroke-miterlimit:10;}
	.st1{fill:none;stroke:#000000;stroke-width:0.1;stroke-miterlimit:10;}
</style>
<polygon class="st0" points="578.2,123.3 578.2,52.4 566.8,52.4 566.8,52.5 488.9,52.5 488.9,41.1 418,41.1 418,52.5 347.1,52.5 
	347.1,41.1 276.3,41.1 276.3,52.5 205.4,52.5 205.4,41.1 134.5,41.1 134.5,52.5 56.6,52.5 56.6,52.4 45.3,52.4 45.3,123.3 
	56.6,123.3 56.6,180 45.3,180 45.3,250.9 56.6,250.9 56.6,250.9 134.5,250.9 134.5,262.2 205.4,262.2 205.4,250.9 276.3,250.9 
	276.3,262.2 347.1,262.2 347.1,250.9 418,250.9 418,262.2 488.9,262.2 488.9,250.9 566.8,250.9 566.8,250.9 578.2,250.9 578.2,180 
	566.8,180 566.8,123.3 "/>
<polygon class="st0" points="1608.6,123.3 1608.6,52.5 1554.8,52.5 1554.8,41.1 1486.7,41.1 1486.7,52.5 1418.7,52.5 1418.7,41.1 
	1350.7,41.1 1350.7,52.5 1282.6,52.5 1282.6,41.1 1214.6,41.1 1214.6,52.5 1146.6,52.5 1146.6,41.1 1078.5,41.1 1078.5,52.5 
	1010.5,52.5 1010.5,41.1 942.5,41.1 942.5,52.5 874.5,52.5 874.5,41.1 806.4,41.1 806.4,52.5 738.4,52.5 738.4,41.1 670.4,41.1 
	670.4,52.5 616.5,52.5 616.5,123.3 605.2,123.3 605.2,180 616.5,180 616.5,250.9 670.4,250.9 670.4,262.2 738.4,262.2 738.4,250.9 
	806.4,250.9 806.4,262.2 874.5,262.2 874.5,250.9 942.5,250.9 942.5,262.2 1010.5,262.2 1010.5,250.9 1078.5,250.9 1078.5,262.2 
	1146.6,262.2 1146.6,250.9 1214.6,250.9 1214.6,262.2 1282.6,262.2 1282.6,250.9 1350.7,250.9 1350.7,262.2 1418.7,262.2 
	1418.7,250.9 1486.7,250.9 1486.7,262.2 1554.8,262.2 1554.8,250.9 1608.6,250.9 1608.6,180 1620,180 1620,123.3 "/>
<polygon class="st0" points="1608.6,366.6 1608.6,295.7 1554.8,295.7 1554.8,284.4 1486.7,284.4 1486.7,295.7 1418.7,295.7 
	1418.7,284.4 1350.7,284.4 1350.7,295.7 1282.6,295.7 1282.6,284.4 1214.6,284.4 1214.6,295.7 1146.6,295.7 1146.6,284.4 
	1078.5,284.4 1078.5,295.7 1010.5,295.7 1010.5,284.4 942.5,284.4 942.5,295.7 874.5,295.7 874.5,284.4 806.4,284.4 806.4,295.7 
	738.4,295.7 738.4,284.4 670.4,284.4 670.4,295.7 616.5,295.7 616.5,366.6 605.2,366.6 605.2,423.3 616.5,423.3 616.5,494.2 
	670.4,494.2 670.4,505.5 738.4,505.5 738.4,494.2 806.4,494.2 806.4,505.5 874.5,505.5 874.5,494.2 942.5,494.2 942.5,505.5 
	1010.5,505.5 1010.5,494.2 1078.5,494.2 1078.5,505.5 1146.6,505.5 1146.6,494.2 1214.6,494.2 1214.6,505.5 1282.6,505.5 
	1282.6,494.2 1350.7,494.2 1350.7,505.5 1418.7,505.5 1418.7,494.2 1486.7,494.2 1486.7,505.5 1554.8,505.5 1554.8,494.2 
	1608.6,494.2 1608.6,423.3 1620,423.3 1620,366.6 "/>
<polygon class="st0" points="578.2,366.6 578.2,295.7 566.8,295.7 566.8,295.7 488.9,295.7 488.9,284.4 418,284.4 418,295.7 
	347.1,295.7 347.1,284.4 276.3,284.4 276.3,295.7 205.4,295.7 205.4,284.4 134.5,284.4 134.5,295.7 56.6,295.7 56.6,295.7 
	45.3,295.7 45.3,366.6 56.6,366.6 56.6,423.3 45.3,423.3 45.3,494.2 56.6,494.2 56.6,494.2 134.5,494.2 134.5,505.5 205.4,505.5 
	205.4,494.2 276.3,494.2 276.3,505.5 347.1,505.5 347.1,494.2 418,494.2 418,505.5 488.9,505.5 488.9,494.2 566.8,494.2 
	566.8,494.2 578.2,494.2 578.2,423.3 566.8,423.3 566.8,366.6 "/>
<path class="st1" d="M343.8,575.3H149.9c-15.6,0-28.3,12.8-28.3,28.3v20c0,15.6,12.8,28.3,28.3,28.3h193.9
	c15.6,0,28.3-12.8,28.3-28.3v-20C372.2,588.1,359.4,575.3,343.8,575.3z M161.8,619.4c-3.9,0-7.1-3.2-7.1-7.1s3.2-7.1,7.1-7.1
	s7.1,3.2,7.1,7.1S165.7,619.4,161.8,619.4z M331.9,619.4c-3.9,0-7.1-3.2-7.1-7.1s3.2-7.1,7.1-7.1s7.1,3.2,7.1,7.1
	S335.8,619.4,331.9,619.4z"/>
<path class="st1" d="M343.8,693H149.9c-15.6,0-28.3,12.8-28.3,28.3v20c0,15.6,12.8,28.3,28.3,28.3h193.9c15.6,0,28.3-12.8,28.3-28.3
	v-20C372.2,705.7,359.4,693,343.8,693z M161.8,738.4c-3.9,0-7.1-3.2-7.1-7.1s3.2-7.1,7.1-7.1s7.1,3.2,7.1,7.1
	S165.7,738.4,161.8,738.4z M331.9,738.4c-3.9,0-7.1-3.2-7.1-7.1s3.2-7.1,7.1-7.1s7.1,3.2,7.1,7.1S335.8,738.4,331.9,738.4z"/>
<path class="st1" d="M1591.6,555.6H542.8c-15.6,0-28.3,12.8-28.3,28.3v566.9c0,15.6,12.8,28.3,28.3,28.3h1048.8
	c15.6,0,28.3-12.8,28.3-28.3V583.9C1620,568.3,1607.2,555.6,1591.6,555.6z M537.2,1163.8c-3.9,0-7.1-3.2-7.1-7.1s3.2-7.1,7.1-7.1
	c3.9,0,7.1,3.2,7.1,7.1S541.1,1163.8,537.2,1163.8z M537.2,585.5c-3.9,0-7.1-3.2-7.1-7.1s3.2-7.1,7.1-7.1c3.9,0,7.1,3.2,7.1,7.1
	S541.1,585.5,537.2,585.5z M571.1,1044.6h-11.3v-70.9h11.3V1044.6z M571.1,902.8h-11.3V832h11.3V902.8z M571.1,761.1h-11.3v-70.9
	h11.3V761.1z M693,1133.9h-68v-11.3h68V1133.9z M693,612.3h-68v-11.3h68V612.3z M829.1,1133.9h-68v-11.3h68V1133.9z M829.1,612.3
	h-68v-11.3h68V612.3z M965.2,1133.9h-68v-11.3h68V1133.9z M965.2,612.3h-68v-11.3h68V612.3z M1101.2,1133.9h-68v-11.3h68V1133.9z
	 M1101.2,612.3h-68v-11.3h68V612.3z M1237.3,1133.9h-68v-11.3h68V1133.9z M1237.3,612.3h-68v-11.3h68V612.3z M1373.4,1133.9h-68
	v-11.3h68V1133.9z M1342.6,897.2c2.3,0,4.3,1.9,4.3,4.3c0,2.3-1.9,4.3-4.3,4.3c-2.3,0-4.3-1.9-4.3-4.3
	C1338.3,899.1,1340.2,897.2,1342.6,897.2z M1338.3,833.4c0-2.3,1.9-4.3,4.3-4.3c2.3,0,4.3,1.9,4.3,4.3c0,2.3-1.9,4.3-4.3,4.3
	C1340.2,837.6,1338.3,835.7,1338.3,833.4z M1373.4,612.3h-68v-11.3h68V612.3z M1404.1,905.7c-2.3,0-4.3-1.9-4.3-4.3
	c0-2.3,1.9-4.3,4.3-4.3c2.3,0,4.3,1.9,4.3,4.3C1408.4,903.8,1406.5,905.7,1404.1,905.7z M1404.1,837.6c-2.3,0-4.3-1.9-4.3-4.3
	c0-2.3,1.9-4.3,4.3-4.3c2.3,0,4.3,1.9,4.3,4.3C1408.4,835.7,1406.5,837.6,1404.1,837.6z M1509.4,1133.9h-68v-11.3h68V1133.9z
	 M1509.4,612.3h-68v-11.3h68V612.3z M1574.6,1044.6h-11.3v-70.9h11.3V1044.6z M1574.6,902.8h-11.3V832h11.3V902.8z M1574.6,761.1
	h-11.3v-70.9h11.3V761.1z M1597.2,1163.8c-3.9,0-7.1-3.2-7.1-7.1s3.2-7.1,7.1-7.1c3.9,0,7.1,3.2,7.1,7.1
	S1601.2,1163.8,1597.2,1163.8z M1597.2,585.5c-3.9,0-7.1-3.2-7.1-7.1s3.2-7.1,7.1-7.1c3.9,0,7.1,3.2,7.1,7.1
	S1601.2,585.5,1597.2,585.5z"/>
<path class="st1" d="M2257.8,42.5h-566.9c-15.6,0-28.3,12.8-28.3,28.3v1048.8c0,15.6,12.8,28.3,28.3,28.3h566.9
	c15.6,0,28.3-12.8,28.3-28.3V70.9C2286.1,55.3,2273.4,42.5,2257.8,42.5z M2157.3,164.5c0,2-1.6,3.5-3.5,3.5s-3.5-1.6-3.5-3.5
	s1.6-3.5,3.5-3.5S2157.3,162.5,2157.3,164.5z M2157.3,306.2c0,2-1.6,3.5-3.5,3.5s-3.5-1.6-3.5-3.5s1.6-3.5,3.5-3.5
	S2157.3,304.2,2157.3,306.2z M2080.6,87.9h70.9v11.3h-70.9V87.9z M2059.3,331.6c3.9,0,7.1,3.2,7.1,7.1c0,3.9-3.2,7.1-7.1,7.1
	s-7.1-3.2-7.1-7.1C2052.2,334.7,2055.4,331.6,2059.3,331.6z M1938.9,87.9h70.9v11.3h-70.9V87.9z M1889.3,331.6
	c3.9,0,7.1,3.2,7.1,7.1c0,3.9-3.2,7.1-7.1,7.1s-7.1-3.2-7.1-7.1C1882.2,334.7,1885.3,331.6,1889.3,331.6z M1797.1,87.9h70.9v11.3
	h-70.9V87.9z M1794.9,160.9c2,0,3.5,1.6,3.5,3.5s-1.6,3.5-3.5,3.5c-2,0-3.5-1.6-3.5-3.5S1792.9,160.9,1794.9,160.9z M1794.9,302.6
	c2,0,3.5,1.6,3.5,3.5s-1.6,3.5-3.5,3.5c-2,0-3.5-1.6-3.5-3.5S1792.9,302.6,1794.9,302.6z M1685.2,1132.4c-3.9,0-7.1-3.2-7.1-7.1
	s3.2-7.1,7.1-7.1s7.1,3.2,7.1,7.1S1689.1,1132.4,1685.2,1132.4z M1685.2,72.4c-3.9,0-7.1-3.2-7.1-7.1s3.2-7.1,7.1-7.1
	s7.1,3.2,7.1,7.1S1689.1,72.4,1685.2,72.4z M1719.2,1037.5h-11.3v-68h11.3V1037.5z M1719.2,901.4h-11.3v-68h11.3V901.4z
	 M1719.2,765.4h-11.3v-68h11.3V765.4z M1719.2,629.3h-11.3v-68h11.3V629.3z M1719.2,493.2h-11.3v-68h11.3V493.2z M1719.2,357.2
	h-11.3v-68h11.3V357.2z M1719.2,221.1h-11.3v-68h11.3V221.1z M1868,1102.7h-70.9v-11.3h70.9V1102.7z M1950,1004.2v34h-151.1v-34
	H1950z M1801.7,836.9c0-2.3,1.9-4.3,4.3-4.3c2.3,0,4.3,1.9,4.3,4.3c0,2.3-1.9,4.3-4.3,4.3C1803.6,841.2,1801.7,839.3,1801.7,836.9z
	 M1816.2,987.3c0-2.3,1.9-4.3,4.3-4.3s4.3,1.9,4.3,4.3c0,2.3-1.9,4.3-4.3,4.3S1816.2,989.7,1816.2,987.3z M1889.3,816
	c-3.9,0-7.1-3.2-7.1-7.1c0-3.9,3.2-7.1,7.1-7.1s7.1,3.2,7.1,7.1C1896.3,812.8,1893.2,816,1889.3,816z M1899.5,983.1
	c2.3,0,4.3,1.9,4.3,4.3c0,2.3-1.9,4.3-4.3,4.3c-2.3,0-4.3-1.9-4.3-4.3C1895.3,985,1897.2,983.1,1899.5,983.1z M1941.2,840.6
	c0-2.3,1.9-4.3,4.3-4.3c2.3,0,4.3,1.9,4.3,4.3c0,2.3-1.9,4.3-4.3,4.3C1943.1,844.9,1941.2,843,1941.2,840.6z M2009.7,1102.7h-70.9
	v-11.3h70.9V1102.7z M1990.7,1024.1c2.3,0,4.3,1.9,4.3,4.3c0,2.3-1.9,4.3-4.3,4.3c-2.3,0-4.3-1.9-4.3-4.3
	C1986.4,1026.1,1988.3,1024.1,1990.7,1024.1z M1986.4,864c0-2.3,1.9-4.3,4.3-4.3c2.3,0,4.3,1.9,4.3,4.3c0,2.3-1.9,4.3-4.3,4.3
	C1988.3,868.2,1986.4,866.3,1986.4,864z M2059.3,816c-3.9,0-7.1-3.2-7.1-7.1c0-3.9,3.2-7.1,7.1-7.1s7.1,3.2,7.1,7.1
	C2066.4,812.8,2063.2,816,2059.3,816z M2151.5,1102.7h-70.9v-11.3h70.9V1102.7z M2129.6,1024.1c2.3,0,4.3,1.9,4.3,4.3
	c0,2.3-1.9,4.3-4.3,4.3c-2.3,0-4.3-1.9-4.3-4.3C2125.3,1026.1,2127.2,1024.1,2129.6,1024.1z M2125.3,864c0-2.3,1.9-4.3,4.3-4.3
	c2.3,0,4.3,1.9,4.3,4.3c0,2.3-1.9,4.3-4.3,4.3C2127.2,868.2,2125.3,866.3,2125.3,864z M2183.3,788h-405.5v-11.3h405.5V788z
	 M2183.3,765.4h-405.5V754h405.5V765.4z M2183.3,742.7h-405.5v-11.3h405.5V742.7z M2183.3,720h-405.5v-11.3h405.5V720z
	 M2183.3,697.3h-405.5V686h405.5V697.3z M2183.3,674.6h-405.5v-11.3h405.5V674.6z M2240.8,1037.5h-11.3v-68h11.3V1037.5z
	 M2240.8,901.4h-11.3v-68h11.3V901.4z M2240.8,765.4h-11.3v-68h11.3V765.4z M2240.8,629.3h-11.3v-68h11.3V629.3z M2240.8,493.2
	h-11.3v-68h11.3V493.2z M2240.8,357.2h-11.3v-68h11.3V357.2z M2240.8,221.1h-11.3v-68h11.3V221.1z M2263.4,1132.4
	c-3.9,0-7.1-3.2-7.1-7.1s3.2-7.1,7.1-7.1c3.9,0,7.1,3.2,7.1,7.1S2267.3,1132.4,2263.4,1132.4z M2263.4,72.4c-3.9,0-7.1-3.2-7.1-7.1
	s3.2-7.1,7.1-7.1c3.9,0,7.1,3.2,7.1,7.1S2267.3,72.4,2263.4,72.4z"/>
</svg>
